<?xml version="1.0" encoding="utf-8"?>
<!-- Generator: Adobe Illustrator 18.0.0, SVG Export Plug-In . SVG Version: 6.00 Build 0)  -->
<!DOCTYPE svg PUBLIC "-//W3C//DTD SVG 1.1//EN" "http://www.w3.org/Graphics/SVG/1.1/DTD/svg11.dtd">
<svg version="1.1" id="Camada_1" xmlns="http://www.w3.org/2000/svg" xmlns:xlink="http://www.w3.org/1999/xlink" x="0px" y="0px"
	 viewBox="0 0 96.7 28.3" enable-background="new 0 0 96.7 28.3" xml:space="preserve">
<path fill-rule="evenodd" clip-rule="evenodd" fill="#E5232A" d="M11.2,2.3h75c5.5,0,10,4.5,10,10v4c0,5.5-4.5,10-10,10h-75
	c-5.5,0-10-4.5-10-10v-4C1.2,6.8,5.7,2.3,11.2,2.3z"/>
<path fill="#FFFFFF" d="M14.4,0.3c-7.7,0-14,6.3-14,14c0,7.7,6.3,14,14,14c7.7,0,14-6.3,14-14C28.4,6.6,22.1,0.3,14.4,0.3z
	 M14.4,26.5C7.7,26.5,2.2,21,2.2,14.3S7.7,2.1,14.4,2.1c6.7,0,12.2,5.5,12.2,12.2C26.5,21,21.1,26.5,14.4,26.5z"/>
<g>
	<path fill="#FFFFFF" d="M39.4,19L36.5,8.5h1.3l2.4,9.1l2.4-9.1h1.2L40.8,19H39.4z"/>
	<path fill="#FFFFFF" d="M44.5,13.8c0-2,0.3-3.4,0.8-4.2c0.5-0.9,1.4-1.3,2.6-1.3c1.2,0,2.1,0.4,2.6,1.3c0.5,0.9,0.8,2.3,0.8,4.2
		S51,17.2,50.5,18c-0.5,0.9-1.4,1.3-2.6,1.3c-1.2,0-2-0.4-2.6-1.3S44.5,15.7,44.5,13.8z M45.7,13.8c0,1.7,0.2,2.9,0.5,3.5
		s0.9,1,1.7,1c0.8,0,1.4-0.3,1.7-0.9c0.3-0.6,0.5-1.8,0.5-3.5c0-1.7-0.2-2.9-0.5-3.5c-0.3-0.6-0.9-0.9-1.7-0.9c-0.8,0-1.3,0.3-1.7,1
		S45.7,12.1,45.7,13.8z"/>
	<path fill="#FFFFFF" d="M52.9,19V8.5h1.2v9.4h4.2V19H52.9z"/>
	<path fill="#FFFFFF" d="M59.9,19V9.6h-2.7V8.5h6.4v1.1h-2.5V19H59.9z"/>
	<path fill="#FFFFFF" d="M63,19l2.9-10.5h1.5L70.3,19h-1.2l-0.8-3H65l-0.8,3H63z M65.2,14.9H68l-1.4-5.5L65.2,14.9z"/>
	<path fill="#FFFFFF" d="M71.4,19V8.5h3c1.1,0,1.9,0.2,2.4,0.7s0.8,1.1,0.8,2c0,0.7-0.2,1.3-0.5,1.7s-0.8,0.7-1.5,0.9
		c0.6,0.1,1,0.2,1.3,0.6s0.5,0.8,0.5,1.5c0,0.3,0,0.6,0.1,1.1c0.1,1.1,0.3,1.8,0.6,2.1h-1.5c-0.1-0.2-0.2-0.8-0.3-1.7
		c0-0.5,0-0.8-0.1-1.1c-0.1-0.7-0.3-1.2-0.6-1.5s-0.9-0.4-1.7-0.4h-1.5V19H71.4z M72.6,13.3H74c0.8,0,1.4-0.2,1.8-0.5
		s0.6-0.8,0.6-1.5c0-0.6-0.2-1.1-0.5-1.4S75,9.5,74.2,9.5h-1.7V13.3z"/>
</g>
<path fill-rule="evenodd" clip-rule="evenodd" fill="#E4E4E3" d="M18,19.5l-5.2-5.2L18.1,9l0,0c0.2-0.2,0.3-0.4,0.3-0.7
	c0-0.6-0.4-1-1-1c-0.3,0-0.5,0.1-0.7,0.3l0,0l-6,6l0,0c-0.2,0.2-0.3,0.4-0.3,0.7c0,0,0,0,0,0c0,0,0,0,0,0c0,0.3,0.1,0.5,0.3,0.7l0,0
	l6,6l0,0c0.2,0.2,0.4,0.3,0.7,0.3c0.6,0,1-0.4,1-1C18.4,20,18.2,19.7,18,19.5z"/>
</svg>
