<?xml version="1.0" encoding="utf-8"?>
<!-- Generator: Adobe Illustrator 18.0.0, SVG Export Plug-In . SVG Version: 6.00 Build 0)  -->
<!DOCTYPE svg PUBLIC "-//W3C//DTD SVG 1.1//EN" "http://www.w3.org/Graphics/SVG/1.1/DTD/svg11.dtd">
<svg version="1.1" xmlns="http://www.w3.org/2000/svg" xmlns:xlink="http://www.w3.org/1999/xlink" x="0px" y="0px"
	 viewBox="0 0 93.9 29.3" enable-background="new 0 0 93.9 29.3" xml:space="preserve">
<g id="Camada_1">
	<path fill-rule="evenodd" clip-rule="evenodd" fill="#FFFFFF" d="M10,3.4h73c5.5,0,10,4.5,10,10v3c0,5.5-4.5,10-10,10H10
		c-5.5,0-10-4.5-10-10v-3C0,7.9,4.5,3.4,10,3.4z"/>
</g>
<g id="Camada_2">
	<path fill="#D11317" d="M79,0.6c-7.7,0-14,6.3-14,14c0,7.7,6.3,14,14,14c7.7,0,14-6.3,14-14C93,6.9,86.7,0.6,79,0.6z M79,26.8
		c-6.7,0-12.2-5.5-12.2-12.2S72.3,2.5,79,2.5c6.7,0,12.2,5.5,12.2,12.2C91.2,21.3,85.7,26.8,79,26.8z"/>
	<path fill="#D11317" d="M84.6,13.7h-4.6V9.1c0-0.5-0.4-0.9-0.9-0.9c-0.5,0-0.9,0.4-0.9,0.9v4.6h-4.6c-0.5,0-0.9,0.4-0.9,0.9
		c0,0.5,0.4,0.9,0.9,0.9h4.6v4.6c0,0.5,0.4,0.9,0.9,0.9c0.5,0,0.9-0.4,0.9-0.9v-4.6h4.6c0.5,0,0.9-0.4,0.9-0.9
		C85.5,14.1,85.1,13.7,84.6,13.7z"/>
	<g>
		<path d="M10.4,19.4L7.4,8.8h1.3l2.4,9.1l2.4-9.1h1.2l-2.9,10.5H10.4z"/>
		<path d="M15.7,19.4V8.8h5.2v1.1h-4.1v3.4h3.8v1.1h-3.8v3.9h4.1v1.1H15.7z"/>
		<path d="M22.5,19.4V8.8h3c1.1,0,1.9,0.2,2.4,0.7s0.8,1.1,0.8,2c0,0.7-0.2,1.3-0.5,1.7c-0.3,0.4-0.8,0.7-1.5,0.9
			c0.6,0.1,1,0.2,1.3,0.6s0.5,0.8,0.5,1.5c0,0.3,0,0.6,0.1,1.1c0.1,1.1,0.3,1.8,0.6,2.1h-1.5c-0.1-0.2-0.2-0.8-0.3-1.7
			c0-0.5,0-0.8-0.1-1.1c-0.1-0.7-0.3-1.2-0.6-1.5s-0.9-0.4-1.7-0.4h-1.5v4.7H22.5z M23.7,13.7h1.4c0.8,0,1.4-0.2,1.8-0.5
			c0.4-0.3,0.6-0.8,0.6-1.5c0-0.6-0.2-1.1-0.5-1.4c-0.3-0.3-0.9-0.4-1.7-0.4h-1.7V13.7z"/>
		<path d="M41.5,19.4V9.4l-2.6,9.9h-1.1l-2.5-9.9v9.9h-1.1V8.8h2l2.2,9l2.3-9h1.9v10.5H41.5z"/>
		<path d="M43.8,19.4l2.9-10.5h1.5l2.9,10.5h-1.2l-0.8-3h-3.3l-0.8,3H43.8z M46,15.3h2.8l-1.4-5.5L46,15.3z"/>
		<path d="M52.2,19.4V8.8h1.2v10.5H52.2z"/>
		<path d="M55.1,16h1.1v0.4c0,0.7,0.2,1.3,0.5,1.6c0.3,0.4,0.8,0.5,1.5,0.5c0.6,0,1-0.2,1.4-0.5c0.3-0.4,0.5-0.8,0.5-1.4
			c0-0.5-0.1-0.9-0.3-1.1s-0.7-0.5-1.4-0.8c-0.2-0.1-0.4-0.2-0.7-0.3c-0.9-0.3-1.4-0.5-1.5-0.7c-0.3-0.3-0.5-0.6-0.7-0.9
			c-0.1-0.4-0.2-0.8-0.2-1.2c0-0.9,0.3-1.6,0.8-2.1c0.5-0.5,1.2-0.8,2.1-0.8c0.9,0,1.5,0.2,2,0.7s0.7,1.1,0.7,2c0,0,0,0.1,0,0.1
			s0,0.1,0,0.1h-1.1v-0.1c0-0.6-0.1-1-0.4-1.4s-0.7-0.5-1.2-0.5c-0.5,0-1,0.2-1.3,0.5s-0.5,0.7-0.5,1.2c0,0.5,0.1,0.9,0.3,1.2
			s0.7,0.5,1.4,0.8c0.1,0,0.2,0.1,0.4,0.1c1.1,0.4,1.8,0.7,2,0.9c0.3,0.2,0.5,0.5,0.6,0.9c0.1,0.3,0.2,0.8,0.2,1.2
			c0,1-0.3,1.8-0.8,2.3c-0.6,0.6-1.3,0.8-2.3,0.8c-1,0-1.7-0.3-2.2-0.8s-0.8-1.4-0.8-2.4c0,0,0-0.1,0-0.2
			C55.1,16.1,55.1,16.1,55.1,16z"/>
	</g>
</g>
</svg>
