<?xml version="1.0" encoding="utf-8"?>
<!-- Generator: Adobe Illustrator 18.0.0, SVG Export Plug-In . SVG Version: 6.00 Build 0)  -->
<!DOCTYPE svg PUBLIC "-//W3C//DTD SVG 1.1//EN" "http://www.w3.org/Graphics/SVG/1.1/DTD/svg11.dtd">
<svg version="1.1" id="Camada_1" xmlns="http://www.w3.org/2000/svg" xmlns:xlink="http://www.w3.org/1999/xlink" x="0px" y="0px"
	 viewBox="0 0 202.7 54.5" enable-background="new 0 0 202.7 54.5" xml:space="preserve">
<path fill="#BE2B2A" d="M2.9,12.5c-0.7,0.3-1.2,0.9-1.3,1.6c-0.1,0.7,0.2,1.5,0.8,1.9l6.5,4.8L32,2.5L11.6,22.8l8.9,6.5
	c0.6,0.4,1.3,0.5,2,0.3c0.7-0.2,1.2-0.7,1.4-1.4L33.4,2c0.1-0.3,0-0.6-0.2-0.8C33,1.1,32.7,1,32.5,1.1L2.9,12.5z"/>
<path fill="#BE2B2A" d="M7.4,22.4l0.1,0.3l1.3,6.9c0.1,0.5,0.4,0.9,0.9,1.2c0.5,0.2,1,0.2,1.5-0.1c1.8-1.1,4.1-2.7,4-2.7L7.4,22.4z"
	/>
<g>
	<g>
		<g>
			<linearGradient id="SVGID_1_" gradientUnits="userSpaceOnUse" x1="6.0777" y1="33.6372" x2="202.7181" y2="33.6372">
				<stop  offset="0.3515" style="stop-color:#D12527"/>
				<stop  offset="0.3533" style="stop-color:#D12628;stop-opacity:0.9969"/>
				<stop  offset="0.4396" style="stop-color:#DD5F60;stop-opacity:0.8452"/>
				<stop  offset="0.5262" style="stop-color:#E89091;stop-opacity:0.6932"/>
				<stop  offset="0.6111" style="stop-color:#F0B8B9;stop-opacity:0.544"/>
				<stop  offset="0.6941" style="stop-color:#F7D7D7;stop-opacity:0.3982"/>
				<stop  offset="0.7746" style="stop-color:#FBEDED;stop-opacity:0.2568"/>
				<stop  offset="0.8514" style="stop-color:#FEFAFB;stop-opacity:0.1218"/>
				<stop  offset="0.9208" style="stop-color:#FFFFFF;stop-opacity:0"/>
			</linearGradient>
			<path fill="none" stroke="url(#SVGID_1_)" stroke-miterlimit="10" d="M7.3,32.9c0,0.5-0.1,1-0.1,1.5"/>
			<linearGradient id="SVGID_2_" gradientUnits="userSpaceOnUse" x1="6.0777" y1="42.1407" x2="202.7181" y2="42.1407">
				<stop  offset="0.3515" style="stop-color:#D12527"/>
				<stop  offset="0.3533" style="stop-color:#D12628;stop-opacity:0.9969"/>
				<stop  offset="0.4396" style="stop-color:#DD5F60;stop-opacity:0.8452"/>
				<stop  offset="0.5262" style="stop-color:#E89091;stop-opacity:0.6932"/>
				<stop  offset="0.6111" style="stop-color:#F0B8B9;stop-opacity:0.544"/>
				<stop  offset="0.6941" style="stop-color:#F7D7D7;stop-opacity:0.3982"/>
				<stop  offset="0.7746" style="stop-color:#FBEDED;stop-opacity:0.2568"/>
				<stop  offset="0.8514" style="stop-color:#FEFAFB;stop-opacity:0.1218"/>
				<stop  offset="0.9208" style="stop-color:#FFFFFF;stop-opacity:0"/>
			</linearGradient>
			<path fill="none" stroke="url(#SVGID_2_)" stroke-miterlimit="10" stroke-dasharray="2.9102,2.9102,2.9102,2.9102" d="M6.9,37.3
				c0,0.4-0.1,0.8-0.1,1.2c-0.7,2.7,0.4,5.7,2.6,8.2"/>
			<linearGradient id="SVGID_3_" gradientUnits="userSpaceOnUse" x1="6.0777" y1="29.3057" x2="202.7181" y2="29.3057">
				<stop  offset="0.3515" style="stop-color:#D12527"/>
				<stop  offset="0.3533" style="stop-color:#D12628;stop-opacity:0.9969"/>
				<stop  offset="0.4396" style="stop-color:#DD5F60;stop-opacity:0.8452"/>
				<stop  offset="0.5262" style="stop-color:#E89091;stop-opacity:0.6932"/>
				<stop  offset="0.6111" style="stop-color:#F0B8B9;stop-opacity:0.544"/>
				<stop  offset="0.6941" style="stop-color:#F7D7D7;stop-opacity:0.3982"/>
				<stop  offset="0.7746" style="stop-color:#FBEDED;stop-opacity:0.2568"/>
				<stop  offset="0.8514" style="stop-color:#FEFAFB;stop-opacity:0.1218"/>
				<stop  offset="0.9208" style="stop-color:#FFFFFF;stop-opacity:0"/>
			</linearGradient>
			
				<path fill="none" stroke="url(#SVGID_3_)" stroke-miterlimit="10" stroke-dasharray="2.9102,2.9102,2.9102,2.9102,2.9102,2.9102" d="
				M10.4,47.8c7.3,6.8,23.7,8.5,38.6-14.7c14-18.3,13.1,1.7,39.9-2.5c25.6-9.7,74-45.8,54.3-5.6"/>
			<linearGradient id="SVGID_4_" gradientUnits="userSpaceOnUse" x1="6.0777" y1="27.1007" x2="202.7181" y2="27.1007">
				<stop  offset="0.3515" style="stop-color:#D12527"/>
				<stop  offset="0.3533" style="stop-color:#D12628;stop-opacity:0.9969"/>
				<stop  offset="0.4396" style="stop-color:#DD5F60;stop-opacity:0.8452"/>
				<stop  offset="0.5262" style="stop-color:#E89091;stop-opacity:0.6932"/>
				<stop  offset="0.6111" style="stop-color:#F0B8B9;stop-opacity:0.544"/>
				<stop  offset="0.6941" style="stop-color:#F7D7D7;stop-opacity:0.3982"/>
				<stop  offset="0.7746" style="stop-color:#FBEDED;stop-opacity:0.2568"/>
				<stop  offset="0.8514" style="stop-color:#FEFAFB;stop-opacity:0.1218"/>
				<stop  offset="0.9208" style="stop-color:#FFFFFF;stop-opacity:0"/>
			</linearGradient>
			<path fill="none" stroke="url(#SVGID_4_)" stroke-miterlimit="10" d="M142.6,26.3c-0.2,0.4-0.4,0.9-0.7,1.3c0.5,0,1,0,1.5,0"/>
			<linearGradient id="SVGID_5_" gradientUnits="userSpaceOnUse" x1="6.0777" y1="27.871" x2="202.7181" y2="27.871">
				<stop  offset="0.3515" style="stop-color:#D12527"/>
				<stop  offset="0.3533" style="stop-color:#D12628;stop-opacity:0.9969"/>
				<stop  offset="0.4396" style="stop-color:#DD5F60;stop-opacity:0.8452"/>
				<stop  offset="0.5262" style="stop-color:#E89091;stop-opacity:0.6932"/>
				<stop  offset="0.6111" style="stop-color:#F0B8B9;stop-opacity:0.544"/>
				<stop  offset="0.6941" style="stop-color:#F7D7D7;stop-opacity:0.3982"/>
				<stop  offset="0.7746" style="stop-color:#FBEDED;stop-opacity:0.2568"/>
				<stop  offset="0.8514" style="stop-color:#FEFAFB;stop-opacity:0.1218"/>
				<stop  offset="0.9208" style="stop-color:#FFFFFF;stop-opacity:0"/>
			</linearGradient>
			<path fill="none" stroke="url(#SVGID_5_)" stroke-miterlimit="10" stroke-dasharray="3.3266,3.3266,3.3266,3.3266" d="
				M146.7,27.8c4.2,0.1,8.1,0.2,11.6,0.2"/>
			<linearGradient id="SVGID_6_" gradientUnits="userSpaceOnUse" x1="6.0777" y1="23.7592" x2="202.7181" y2="23.7592">
				<stop  offset="0.3515" style="stop-color:#D12527"/>
				<stop  offset="0.3533" style="stop-color:#D12628;stop-opacity:0.9969"/>
				<stop  offset="0.4396" style="stop-color:#DD5F60;stop-opacity:0.8452"/>
				<stop  offset="0.5262" style="stop-color:#E89091;stop-opacity:0.6932"/>
				<stop  offset="0.6111" style="stop-color:#F0B8B9;stop-opacity:0.544"/>
				<stop  offset="0.6941" style="stop-color:#F7D7D7;stop-opacity:0.3982"/>
				<stop  offset="0.7746" style="stop-color:#FBEDED;stop-opacity:0.2568"/>
				<stop  offset="0.8514" style="stop-color:#FEFAFB;stop-opacity:0.1218"/>
				<stop  offset="0.9208" style="stop-color:#FFFFFF;stop-opacity:0"/>
			</linearGradient>
			
				<path fill="none" stroke="url(#SVGID_6_)" stroke-miterlimit="10" stroke-dasharray="3.3266,3.3266,3.3266,3.3266,3.3266,3.3266" d="
				M160,28c78.8,0.7,13.3-15.8,39.6-4.6"/>
			<linearGradient id="SVGID_7_" gradientUnits="userSpaceOnUse" x1="6.0777" y1="24.3255" x2="202.7181" y2="24.3255">
				<stop  offset="0.3515" style="stop-color:#D12527"/>
				<stop  offset="0.3533" style="stop-color:#D12628;stop-opacity:0.9969"/>
				<stop  offset="0.4396" style="stop-color:#DD5F60;stop-opacity:0.8452"/>
				<stop  offset="0.5262" style="stop-color:#E89091;stop-opacity:0.6932"/>
				<stop  offset="0.6111" style="stop-color:#F0B8B9;stop-opacity:0.544"/>
				<stop  offset="0.6941" style="stop-color:#F7D7D7;stop-opacity:0.3982"/>
				<stop  offset="0.7746" style="stop-color:#FBEDED;stop-opacity:0.2568"/>
				<stop  offset="0.8514" style="stop-color:#FEFAFB;stop-opacity:0.1218"/>
				<stop  offset="0.9208" style="stop-color:#FFFFFF;stop-opacity:0"/>
			</linearGradient>
			<path fill="none" stroke="url(#SVGID_7_)" stroke-miterlimit="10" d="M201.1,24c0.4,0.2,0.9,0.4,1.4,0.6"/>
		</g>
	</g>
</g>
<g>
	<linearGradient id="SVGID_8_" gradientUnits="userSpaceOnUse" x1="39.4844" y1="22.6465" x2="39.4844" y2="11.9522">
		<stop  offset="0.6535" style="stop-color:#2C3588"/>
		<stop  offset="0.682" style="stop-color:#242B6E"/>
		<stop  offset="0.733" style="stop-color:#171C47"/>
		<stop  offset="0.7833" style="stop-color:#0D1028"/>
		<stop  offset="0.8321" style="stop-color:#060712"/>
		<stop  offset="0.8787" style="stop-color:#010205"/>
		<stop  offset="0.9208" style="stop-color:#000000"/>
	</linearGradient>
	<path fill="url(#SVGID_8_)" d="M43,21.3c-0.1,0.6-0.5,1.1-1.2,1.1l-0.5,0c-0.8,0-1.2-0.4-1.4-1l-2.1-5.8l0,0l-1.1,5.9
		c-0.1,0.6-0.5,1-1,1l-0.2,0c-0.7,0-1.2-0.4-1-1.3l1.5-7.9c0.1-0.7,0.5-1.2,1.4-1.2l0.8,0c0.8,0,1.3,0.4,1.5,1l1.7,4.9l0,0l1-5.1
		c0.1-0.6,0.5-1,1-1l0.2,0c0.7,0,1.2,0.5,1,1.3L43,21.3z"/>
	<linearGradient id="SVGID_9_" gradientUnits="userSpaceOnUse" x1="49.7084" y1="22.3065" x2="49.7084" y2="11.5762">
		<stop  offset="0.6535" style="stop-color:#2C3588"/>
		<stop  offset="0.682" style="stop-color:#242B6E"/>
		<stop  offset="0.733" style="stop-color:#171C47"/>
		<stop  offset="0.7833" style="stop-color:#0D1028"/>
		<stop  offset="0.8321" style="stop-color:#060712"/>
		<stop  offset="0.8787" style="stop-color:#010205"/>
		<stop  offset="0.9208" style="stop-color:#000000"/>
	</linearGradient>
	<path fill="url(#SVGID_9_)" d="M44.6,18.1c-0.1-3.3,2-6.4,5.6-6.5c2.8-0.1,4.6,1.6,4.7,4.3c0.1,3.2-1.9,6.3-5.6,6.5
		C46.6,22.4,44.6,20.8,44.6,18.1z M52,15.8c0-1.2-0.5-2.3-1.9-2.3c-2,0.1-2.7,2.9-2.7,4.5c0,1.3,0.6,2.3,1.9,2.3
		C51.3,20.3,52,17.6,52,15.8z"/>
	<linearGradient id="SVGID_10_" gradientUnits="userSpaceOnUse" x1="59.2373" y1="21.8926" x2="59.2373" y2="11.3074">
		<stop  offset="0.6535" style="stop-color:#2C3588"/>
		<stop  offset="0.682" style="stop-color:#242B6E"/>
		<stop  offset="0.733" style="stop-color:#171C47"/>
		<stop  offset="0.7833" style="stop-color:#0D1028"/>
		<stop  offset="0.8321" style="stop-color:#060712"/>
		<stop  offset="0.8787" style="stop-color:#010205"/>
		<stop  offset="0.9208" style="stop-color:#000000"/>
	</linearGradient>
	<path fill="url(#SVGID_10_)" d="M59.1,20.7c-0.1,0.7-0.5,1.1-1.2,1.1l-0.5,0c-0.8,0-1.2-0.6-1-1.4l1.4-7.1l-1.6,0.1
		c-0.7,0-1-0.3-1-0.8l0,0c0-0.7,0.4-1.1,1.1-1.1l6.2-0.2c0.7,0,1,0.3,1,0.8l0,0c0,0.7-0.4,1.1-1.1,1.1l-1.8,0.1L59.1,20.7z"/>
	<linearGradient id="SVGID_11_" gradientUnits="userSpaceOnUse" x1="65.1183" y1="21.6787" x2="65.1183" y2="8.5912">
		<stop  offset="0.6535" style="stop-color:#2C3588"/>
		<stop  offset="0.682" style="stop-color:#242B6E"/>
		<stop  offset="0.733" style="stop-color:#171C47"/>
		<stop  offset="0.7833" style="stop-color:#0D1028"/>
		<stop  offset="0.8321" style="stop-color:#060712"/>
		<stop  offset="0.8787" style="stop-color:#010205"/>
		<stop  offset="0.9208" style="stop-color:#000000"/>
	</linearGradient>
	<path fill="url(#SVGID_11_)" d="M65.3,20.5c-0.1,0.7-0.5,1.1-1.2,1.2l-0.6,0c-0.8,0-1.2-0.6-1-1.4l1.6-8c0.1-0.7,0.5-1.1,1.2-1.1
		l0.6,0c0.8,0,1.2,0.5,1,1.3L65.3,20.5z M65.1,9.5c0.2-0.6,0.6-0.8,1.2-0.8l0.6,0c0.8,0,1,0.8,0.5,1.2L67,10.2
		c-0.4,0.4-0.8,0.6-1.2,0.6l-0.1,0c-0.6,0-0.9-0.4-0.7-0.9L65.1,9.5z"/>
	<linearGradient id="SVGID_12_" gradientUnits="userSpaceOnUse" x1="71.3915" y1="21.5371" x2="71.3915" y2="10.8082">
		<stop  offset="0.6535" style="stop-color:#2C3588"/>
		<stop  offset="0.682" style="stop-color:#242B6E"/>
		<stop  offset="0.733" style="stop-color:#171C47"/>
		<stop  offset="0.7833" style="stop-color:#0D1028"/>
		<stop  offset="0.8321" style="stop-color:#060712"/>
		<stop  offset="0.8787" style="stop-color:#010205"/>
		<stop  offset="0.9208" style="stop-color:#000000"/>
	</linearGradient>
	<path fill="url(#SVGID_12_)" d="M71.7,21.5c-2.7,0.1-4.7-1.1-4.8-4.1c-0.1-3.3,2-6.5,6-6.6c0.9,0,1.7,0.1,2.2,0.3
		c0.6,0.2,0.9,0.7,0.8,1.3l0,0.2c-0.1,0.5-0.4,0.8-0.9,0.8c-0.7,0-0.9-0.6-2.1-0.5c-2.3,0.1-3.1,2.8-3,4.6c0.1,1.6,0.8,2.2,2.1,2.1
		c1.3,0,1.5-0.7,2.1-0.8c0.6,0,0.9,0.4,0.8,1l0,0.1c-0.1,0.5-0.4,1-1.1,1.3C73.1,21.4,72.4,21.5,71.7,21.5z"/>
	<linearGradient id="SVGID_13_" gradientUnits="userSpaceOnUse" x1="77.8673" y1="21.2256" x2="77.8673" y2="10.7364">
		<stop  offset="0.6535" style="stop-color:#2C3588"/>
		<stop  offset="0.682" style="stop-color:#242B6E"/>
		<stop  offset="0.733" style="stop-color:#171C47"/>
		<stop  offset="0.7833" style="stop-color:#0D1028"/>
		<stop  offset="0.8321" style="stop-color:#060712"/>
		<stop  offset="0.8787" style="stop-color:#010205"/>
		<stop  offset="0.9208" style="stop-color:#000000"/>
	</linearGradient>
	<path fill="url(#SVGID_13_)" d="M78.5,20c-0.1,0.7-0.5,1.1-1.2,1.2l-0.6,0c-0.8,0-1.2-0.6-1-1.4l1.6-8c0.1-0.7,0.5-1.1,1.2-1.1
		l0.6,0c0.8,0,1.2,0.5,1,1.3L78.5,20z"/>
	<linearGradient id="SVGID_14_" gradientUnits="userSpaceOnUse" x1="84.0567" y1="21.1032" x2="84.0567" y2="10.4948">
		<stop  offset="0.6535" style="stop-color:#2C3588"/>
		<stop  offset="0.682" style="stop-color:#242B6E"/>
		<stop  offset="0.733" style="stop-color:#171C47"/>
		<stop  offset="0.7833" style="stop-color:#0D1028"/>
		<stop  offset="0.8321" style="stop-color:#060712"/>
		<stop  offset="0.8787" style="stop-color:#010205"/>
		<stop  offset="0.9208" style="stop-color:#000000"/>
	</linearGradient>
	<path fill="url(#SVGID_14_)" d="M83.6,11.7c0.3-0.7,0.9-1.1,1.7-1.1l0.7,0c0.9,0,1.4,0.5,1.5,1.2l1.2,7.8c0.1,0.9-0.4,1.4-1.1,1.4
		l-0.5,0c-0.8,0-1.2-0.4-1.2-1.2l-0.1-1.2l-3.3,0.1l-0.7,1.5c-0.3,0.5-0.6,1-1.2,1l-0.2,0c-0.7,0-1.2-0.7-0.8-1.5L83.6,11.7z
		 M83.4,16.6l2.1-0.1l-0.4-3.5l0,0L83.4,16.6z"/>
	<linearGradient id="SVGID_15_" gradientUnits="userSpaceOnUse" x1="93.2739" y1="20.8151" x2="93.2739" y2="10.0646">
		<stop  offset="0.6535" style="stop-color:#2C3588"/>
		<stop  offset="0.682" style="stop-color:#242B6E"/>
		<stop  offset="0.733" style="stop-color:#171C47"/>
		<stop  offset="0.7833" style="stop-color:#0D1028"/>
		<stop  offset="0.8321" style="stop-color:#060712"/>
		<stop  offset="0.8787" style="stop-color:#010205"/>
		<stop  offset="0.9208" style="stop-color:#000000"/>
	</linearGradient>
	<path fill="url(#SVGID_15_)" d="M92.7,20.8c-1.2,0-2.2-0.1-2.8-0.5c-0.7-0.4-0.8-0.8-0.7-1.4l0-0.1c0.1-0.5,0.4-0.8,0.9-0.8
		c0.7,0,1,0.9,2.6,0.8c0.8,0,1.5-0.3,1.5-1.2c0-0.6-0.6-0.8-1.7-1.1c-1.5-0.5-2.3-1.2-2.4-2.7c-0.1-2.3,1.5-3.6,4-3.7
		c1,0,1.9,0.1,2.6,0.5c0.6,0.3,0.8,0.7,0.6,1.3l0,0.1c-0.1,0.4-0.4,0.8-0.9,0.8c-0.7,0-0.9-0.7-2.5-0.7c-0.7,0-1.3,0.3-1.3,1.1
		c0,0.6,0.4,0.8,1.6,1.1c1.6,0.5,2.6,1.2,2.6,2.8C97,19.3,95.4,20.7,92.7,20.8z"/>
</g>
</svg>
