<?xml version="1.0" encoding="utf-8"?>
<!-- Generator: Adobe Illustrator 18.0.0, SVG Export Plug-In . SVG Version: 6.00 Build 0)  -->
<!DOCTYPE svg PUBLIC "-//W3C//DTD SVG 1.1//EN" "http://www.w3.org/Graphics/SVG/1.1/DTD/svg11.dtd">
<svg version="1.1" id="Camada_1" xmlns="http://www.w3.org/2000/svg" xmlns:xlink="http://www.w3.org/1999/xlink" x="0px" y="0px"
	 viewBox="0 0 164 77.3" enable-background="new 0 0 164 77.3" xml:space="preserve">
<path fill-rule="evenodd" clip-rule="evenodd" fill="#E41A1F" stroke="#E75656" stroke-miterlimit="10" d="M23.1,13.3L136.6,1.5
	v28.1L22.5,39.8L23.1,13.3z"/>
<path fill-rule="evenodd" clip-rule="evenodd" fill="#A7191A" d="M137.1,0.9l4.3,12.4h-4.3V0.9z"/>
<g>
	<g>
		<g>
			<polyline fill="none" stroke="#FFFFFF" stroke-linecap="square" stroke-miterlimit="10" points="25.5,16.7 25.5,15.2 27,15.1 			
				"/>
			
				<line fill="none" stroke="#FFFFFF" stroke-linecap="square" stroke-miterlimit="10" stroke-dasharray="3.0247,3.0247,3.0247,3.0247" x1="30" y1="14.7" x2="40.5" y2="13.6"/>
			
				<line fill="none" stroke="#FFFFFF" stroke-linecap="square" stroke-miterlimit="10" stroke-dasharray="3.0247,3.0247,3.0247,3.0247,3.0247,3.0247" x1="42" y1="13.4" x2="130.7" y2="3.8"/>
			<polyline fill="none" stroke="#FFFFFF" stroke-linecap="square" stroke-miterlimit="10" points="132.2,3.6 133.7,3.5 133.7,5 			
				"/>
			
				<line fill="none" stroke="#FFFFFF" stroke-linecap="square" stroke-miterlimit="10" stroke-dasharray="1.8443,1.8443,1.8443,1.8443" x1="133.8" y1="6.8" x2="133.9" y2="13.3"/>
			
				<line fill="none" stroke="#FFFFFF" stroke-linecap="square" stroke-miterlimit="10" stroke-dasharray="1.8443,1.8443,1.8443,1.8443,1.8443,1.8443" x1="133.9" y1="14.2" x2="134.1" y2="24.3"/>
			<polyline fill="none" stroke="#FFFFFF" stroke-linecap="square" stroke-miterlimit="10" points="134.1,25.3 134.1,26.8 
				132.6,26.9 			"/>
			
				<line fill="none" stroke="#FFFFFF" stroke-linecap="square" stroke-miterlimit="10" stroke-dasharray="3.0385,3.0385,3.0385,3.0385" x1="129.6" y1="27.2" x2="119" y2="28.2"/>
			
				<line fill="none" stroke="#FFFFFF" stroke-linecap="square" stroke-miterlimit="10" stroke-dasharray="3.0385,3.0385,3.0385,3.0385,3.0385,3.0385" x1="117.5" y1="28.4" x2="28.3" y2="37"/>
			<polyline fill="none" stroke="#FFFFFF" stroke-linecap="square" stroke-miterlimit="10" points="26.8,37.1 25.3,37.3 25.3,35.8 
							"/>
			
				<line fill="none" stroke="#FFFFFF" stroke-linecap="square" stroke-miterlimit="10" stroke-dasharray="1.7325,1.7325,1.7325,1.7325" x1="25.3" y1="34.1" x2="25.4" y2="28"/>
			
				<line fill="none" stroke="#FFFFFF" stroke-linecap="square" stroke-miterlimit="10" stroke-dasharray="1.7325,1.7325,1.7325,1.7325,1.7325,1.7325" x1="25.4" y1="27.1" x2="25.5" y2="17.6"/>
		</g>
	</g>
</g>
<g>
	<path fill="#FFFFFF" d="M43.8,34.6L37,35.4l2.2-20.2l6.3-0.8c1.8-0.2,3.2,0.1,4.2,0.9c1,0.8,1.7,2.2,1.9,4.3
		c0.3,2.6,0.1,5.2-0.6,7.6c-0.4,1.3-0.8,2.4-1.5,3.4c-0.6,1-1.4,1.9-2.4,2.6C46.2,34,45.1,34.4,43.8,34.6z M48.6,27.8
		c0.4-1.3,0.7-2.6,0.8-4c0.1-1.4,0.1-2.7,0-4c-0.2-1.3-0.6-2.2-1.2-2.8c-0.6-0.5-1.6-0.7-2.9-0.6L41.1,17l-1.7,16.2l4.5-0.5
		c1.1-0.1,2.1-0.7,2.9-1.6C47.6,30.2,48.2,29.1,48.6,27.8z"/>
	<path fill="#FFFFFF" d="M53,33.5l1.5-14.6l2.1-0.3l-1.6,14.6L53,33.5z M54.9,15.9l0.3-2.6l2.1-0.3L57,15.6L54.9,15.9z"/>
	<path fill="#FFFFFF" d="M64.5,17.4c0.9-0.1,1.9-0.1,3.1,0l0.5,0.1l-0.3,1.7c-1.3-0.1-2.3-0.1-3.1,0c-1.1,0.1-2.1,0.7-2.8,1.6
		c-1.3,1.7-1.8,4.1-1.5,7.2c0.1,0.9,0.4,1.6,0.9,2.1c0.5,0.4,1.3,0.6,2.3,0.5c0.7-0.1,1.6-0.3,2.6-0.6l0.6-0.2l0.1,1.7
		c-1.3,0.6-2.5,0.9-3.9,1.1c-1.3,0.2-2.4-0.1-3.2-0.7c-0.8-0.7-1.3-1.7-1.5-3.1c-0.5-4,0.2-7.2,2.2-9.3
		C61.5,18.3,62.8,17.6,64.5,17.4z"/>
	<path fill="#FFFFFF" d="M72.8,31.4c-2.4,0.3-3.8-1-4.1-3.8c-0.2-1.6-0.1-3.2,0.2-4.8c0.3-1.6,1-3.1,2-4.4c1-1.3,2.2-2,3.7-2.2
		c1.2-0.1,2.8-0.2,4.8-0.1l1.1,0.1l-1,9.5c-0.1,1.1-0.2,2.4-0.2,3.8l0,0.8l-2.1,0.3c0.1-1.7,0.1-2.7,0.1-3.1
		c-0.1,0.2-0.3,0.5-0.7,1.1c-0.4,0.5-0.8,1-1.1,1.3c-0.3,0.3-0.7,0.7-1.2,1C73.7,31.1,73.2,31.3,72.8,31.4z M78.1,18
		c-1.4-0.1-2.5-0.1-3.5,0c-1,0.1-1.8,0.7-2.4,1.8c-0.7,1.1-1.1,2.3-1.3,3.6c-0.2,1.3-0.2,2.5-0.1,3.5c0.1,1,0.4,1.7,0.7,2.1
		c0.4,0.4,0.9,0.5,1.5,0.4c0.6-0.1,1.3-0.5,2-1.2c0.7-0.7,1.3-1.4,1.7-2.1l0.6-1L78.1,18z"/>
	<path fill="#FFFFFF" d="M91.8,16.4c-1.8,0-3.3,0-4.4,0.1c-1.1,0.1-1.9,0.5-2.4,1.1c-0.5,0.6-0.7,1.3-0.6,2c0.1,0.5,0.3,0.8,0.6,1
		c0.4,0.2,1.2,0.4,2.5,0.5c1.3,0.2,2.2,0.4,2.9,0.8c0.6,0.3,1,1,1.1,1.9c0.2,1.7-0.2,3-1.3,4c-1,1-2.5,1.7-4.3,1.9
		c-1.2,0.1-2.5,0.1-3.9,0l-0.7-0.1l0.2-1.7c1.8,0.1,3.2,0.1,4.4-0.1c1.1-0.1,2-0.5,2.6-1.1c0.6-0.6,0.9-1.3,0.8-2.3
		c-0.1-0.5-0.3-0.9-0.7-1.1c-0.4-0.2-1.2-0.3-2.4-0.5s-2.2-0.4-2.8-0.7c-0.6-0.3-1-1-1.1-1.9c-0.2-1.5,0.2-2.8,1.1-3.9
		c0.9-1.1,2.2-1.7,3.8-1.9c1.4-0.2,2.8-0.2,4.1,0l0.7,0.1L91.8,16.4z"/>
	<path fill="#FFFFFF" d="M102.8,27.7c-2.4,0.3-3.7-0.9-4.1-3.7c-0.2-1.7-0.1-3.3,0.2-5c0.3-1.7,1-3.1,2-4.4c1-1.3,2.2-2,3.6-2.1
		c1-0.1,2-0.1,3.3,0l0.6,0l0.7-6.6l2.1-0.3l-2.3,20.9l-2,0.2l0.2-2.6c-0.1,0.3-0.4,0.6-0.7,1c-0.3,0.4-0.7,0.8-1,1.1
		C104.5,27.2,103.7,27.6,102.8,27.7z M108.2,14.4c-1.3-0.1-2.4-0.1-3.4,0c-1,0.1-1.8,0.7-2.5,1.8s-1.1,2.3-1.3,3.6
		c-0.2,1.3-0.2,2.6-0.1,3.9c0.2,1.6,1,2.2,2.3,2.1c0.6-0.1,1.2-0.4,1.9-1.1c0.7-0.6,1.2-1.3,1.7-1.9l0.6-0.9L108.2,14.4z"/>
	<path fill="#FFFFFF" d="M114.2,21.9c0.1,0.8,0.4,1.4,1,1.8c0.5,0.4,1.2,0.5,1.9,0.4c1.3-0.2,2.7-0.5,4.1-1l0.7-0.3l0,1.7
		c-1.6,0.8-3.2,1.2-4.8,1.4c-3,0.4-4.7-0.9-5-3.8c-0.3-2.6,0-5,0.9-7.3c0.5-1.1,1.2-2,2.1-2.8c0.9-0.7,2-1.2,3.3-1.3
		c2.8-0.3,4.3,0.6,4.6,3c0.2,1.7-0.3,2.9-1.5,3.8c-1.2,0.8-3.2,1.4-5.9,1.7l-1.4,0.2C114.1,20.3,114.1,21,114.2,21.9z M115.8,17.6
		c1.9-0.2,3.3-0.6,4.1-1.1c0.8-0.5,1.1-1.3,1-2.4c-0.1-1.1-0.9-1.6-2.4-1.4c-2.3,0.3-3.7,2-4.3,5.1L115.8,17.6z"/>
</g>
<g>
	<path fill="#E3161C" d="M12.2,71.2c-2.2,0-3.4-1.4-3.6-3.3L6.3,46.5c-0.2-2.4,1-3.8,3.3-3.8h3c2.1,0,3.1,1.4,3.2,3.2l1.1,14.4H17
		l8-15c0.9-1.6,2-2.7,4.1-2.7h1.7c2.3,0,3.4,2.1,2.2,4.2L21,68.3c-1.1,1.9-2.5,2.9-4.8,2.9H12.2z"/>
	<path fill="#E3161C" d="M35,45.9c0.5-2.2,1.9-3.2,3.7-3.2h3c2.2,0,3.4,1.5,2.8,3.9L39.5,68c-0.5,2.2-1.9,3.2-3.7,3.2h-2.9
		c-2.2,0-3.4-1.5-2.9-3.9L35,45.9z"/>
	<path fill="#E3161C" d="M53.8,45.7c1-1.7,2.4-2.9,4.7-2.9h4.4c2.3,0,3.5,1.5,3.7,3.3l2.3,21.3c0.3,2.5-1.1,3.8-3.4,3.8h-2.4
		c-2.5,0-3.6-1.4-3.7-3.3l-0.1-2.2H51l-1.4,2.8c-0.9,1.7-1.9,2.8-4.1,2.8h-1c-2.5,0-3.6-2.3-2.4-4.5L53.8,45.7z M54.2,59.3H59
		L58.5,51h-0.1L54.2,59.3z"/>
	<path fill="#E3161C" d="M93.1,55.6c2.1,0,3.2,1.5,2.8,3.5l-1.7,7.6c-0.5,2.2-1.6,3.2-3.8,4c-2,0.7-4.8,0.9-6.9,0.9
		c-7.8,0-13.6-3.1-13.6-11.3c0-9.7,6.3-18,18.2-18c2.7,0,5.6,0.5,7.1,1.1c2,0.9,2.5,2.3,2.1,3.9L97,48.2c-0.4,1.8-1.4,2.6-2.8,2.6
		c-1.9,0-3-1.6-6.6-1.6c-5.6,0-8,6.7-8,11.8c0,3.1,1.3,4.5,4.1,4.5c0.9,0,1.5-0.1,1.9-0.2l0.9-4.1h-0.6c-1.5,0-2.4-1-2.2-2.6l0-0.2
		c0.2-1.5,1.2-2.6,3.2-2.6H93.1z"/>
	<path fill="#E3161C" d="M107.6,59.9l-1.1,5h8c2.4,0,3,1.5,2.8,3.1l0,0.3c-0.2,1.9-1.5,2.9-3.7,2.9h-15c-1.7,0-3-1.2-2.6-3.2
		l5.1-22.1c0.5-2.2,2.1-3.2,4-3.2h13.6c2.4,0,3.1,1.6,2.9,3.2l0,0.3c-0.2,1.9-1.5,3-3.7,3h-7.8l-1.1,4.6h4.3c2.3,0,2.9,1.4,2.7,3
		l0,0.3c-0.2,1.8-1.4,2.8-3.5,2.8H107.6z"/>
	<path fill="#E3161C" d="M152.1,68c-0.5,2.2-1.9,3.2-3.7,3.2h-2.6c-2.2,0-3.4-1.5-2.8-3.9l3.2-13.8h-0.1l-8,15.3
		c-0.8,1.6-1.7,2.4-3.6,2.4H134c-1.9,0-2.7-1.1-2.8-2.7l-0.9-15.1h-0.1l-3.4,14.8c-0.4,2-1.7,3-3.5,3H122c-2,0-3.2-1.3-2.6-3.6
		l5-21.6c0.4-1.9,1.6-3.2,3.9-3.2h5.2c2.5,0,3.5,1.3,3.6,3.4l0.6,10.9h0.1l5.8-11.2c1.1-2.2,2.5-3,4.8-3h5.9c2.1,0,3.2,1.5,2.8,3.5
		L152.1,68z"/>
</g>
</svg>
