<?xml version="1.0" encoding="utf-8"?>
<!-- Generator: Adobe Illustrator 18.0.0, SVG Export Plug-In . SVG Version: 6.00 Build 0)  -->
<!DOCTYPE svg PUBLIC "-//W3C//DTD SVG 1.1//EN" "http://www.w3.org/Graphics/SVG/1.1/DTD/svg11.dtd">
<svg version="1.1" id="Camada_1" xmlns="http://www.w3.org/2000/svg" xmlns:xlink="http://www.w3.org/1999/xlink" x="0px" y="0px"
	 viewBox="0 0 92.7 127.1" enable-background="new 0 0 92.7 127.1" xml:space="preserve">
<path opacity="0.7" fill-rule="evenodd" clip-rule="evenodd" fill="#E41A1E" d="M46.3,121.7c0,0-45-50.1-45-75c0-24.9,20.1-45,45-45
	c24.9,0,45,20.1,45,45C91.3,71.5,46.3,121.7,46.3,121.7z M46.3,16.7c-16.6,0-30,13.4-30,30c0,16.6,13.4,30,30,30
	c16.6,0,30-13.4,30-30C76.3,30.1,62.9,16.7,46.3,16.7z"/>
<path opacity="0.7" fill-rule="evenodd" clip-rule="evenodd" fill="#CCCED4" d="M46.5,121.7c12.4,0,22.5,0.9,22.5,2
	c0,1.1-10.1,2-22.5,2c-12.4,0-22.5-0.9-22.5-2C24,122.6,34.1,121.7,46.5,121.7z"/>
</svg>
