<?xml version="1.0" encoding="utf-8"?>
<!-- Generator: Adobe Illustrator 18.0.0, SVG Export Plug-In . SVG Version: 6.00 Build 0)  -->
<!DOCTYPE svg PUBLIC "-//W3C//DTD SVG 1.1//EN" "http://www.w3.org/Graphics/SVG/1.1/DTD/svg11.dtd">
<svg version="1.1" id="Camada_1" xmlns="http://www.w3.org/2000/svg" xmlns:xlink="http://www.w3.org/1999/xlink" x="0px" y="0px"
	 viewBox="0 0 39.2 39.7" enable-background="new 0 0 39.2 39.7" xml:space="preserve">
<path fill-rule="evenodd" clip-rule="evenodd" fill="#FFFFFF" d="M4.8,0.8L1.2,4.4c-2,2-1,4.4,0,7.3c0,0,5,8.6,11.4,15.1
	c6.9,6.9,14.9,11.5,14.9,11.5c2.6,1.4,5.3,2,7.3,0l3.6-3.7c1-1,1.2-2.8,0-3.7l-7.3-5.5c-1.2-0.8-2.6-1-3.6,0l0,0l0,0l-2.1,2.2
	c-2.5-1.9-5.3-4.2-7.8-6.8c-2.2-2.3-4.2-4.7-5.8-6.9l2.2-2.2c1-1,0.8-2.4,0-3.7L8.4,0.8C7.4-0.3,5.8-0.3,4.8,0.8 M8.3,13.7l2.9-2.9
	c0.6-0.6,0.5-1.5,0-2.3L7.8,3.8c-0.6-0.9-1.7-0.6-2.3,0L3.1,6.1C2.2,7,2.5,9,3,9.9c2.1,4.1,6.9,10.5,10.9,14.7
	c4.6,5,15.4,11.9,15.4,11.9c0.8,0.4,3.2,0.5,3.8-0.2l2.3-2.3c0.5-0.8,0.7-1.7,0-2.3l-4.6-3.5c-0.8-0.5-1.7-0.6-2.3,0l-2.8,2.9
	C25,30.6,14.3,23.5,8.3,13.7z"/>
</svg>
