<?xml version="1.0" encoding="utf-8"?>
<!-- Generator: Adobe Illustrator 18.0.0, SVG Export Plug-In . SVG Version: 6.00 Build 0)  -->
<!DOCTYPE svg PUBLIC "-//W3C//DTD SVG 1.1//EN" "http://www.w3.org/Graphics/SVG/1.1/DTD/svg11.dtd">
<svg version="1.1" id="Camada_1" xmlns="http://www.w3.org/2000/svg" xmlns:xlink="http://www.w3.org/1999/xlink" x="0px" y="0px"
	 viewBox="0 0 59 59" enable-background="new 0 0 59 59" xml:space="preserve">
<path fill-rule="evenodd" clip-rule="evenodd" fill="#E5232A" d="M29.5,0.3c16.1,0,29.2,13.1,29.2,29.2c0,16.1-13.1,29.2-29.2,29.2
	c-16.1,0-29.2-13.1-29.2-29.2C0.3,13.4,13.4,0.3,29.5,0.3z"/>
<path fill-rule="evenodd" clip-rule="evenodd" fill="#E4E4E3" d="M20.1,36l9.4-9.4l9.5,9.5l0,0c0.3,0.3,0.8,0.5,1.2,0.5
	c1,0,1.8-0.8,1.8-1.8c0-0.5-0.2-0.9-0.5-1.2l0,0L30.8,22.9l0,0c-0.3-0.3-0.8-0.5-1.3-0.5c0,0,0,0,0,0c0,0,0,0,0,0
	c-0.5,0-1,0.2-1.3,0.5l0,0L17.5,33.6l0,0c-0.3,0.3-0.5,0.8-0.5,1.2c0,1,0.8,1.8,1.8,1.8C19.3,36.6,19.8,36.4,20.1,36z"/>
</svg>
