<?xml version="1.0" encoding="utf-8"?>
<!-- Generator: Adobe Illustrator 18.0.0, SVG Export Plug-In . SVG Version: 6.00 Build 0)  -->
<!DOCTYPE svg PUBLIC "-//W3C//DTD SVG 1.1//EN" "http://www.w3.org/Graphics/SVG/1.1/DTD/svg11.dtd">
<svg version="1.1" id="Camada_1" xmlns="http://www.w3.org/2000/svg" xmlns:xlink="http://www.w3.org/1999/xlink" x="0px" y="0px"
	 viewBox="0 0 22 22" enable-background="new 0 0 22 22" xml:space="preserve">
<path fill-rule="evenodd" clip-rule="evenodd" fill="#E52420" d="M2.7,0.4l-2,2c-1.1,1.1-0.6,2.5,0,4.1c0,0,2.8,4.8,6.4,8.4
	c3.9,3.8,8.3,6.4,8.3,6.4c1.5,0.8,2.9,1.1,4.1,0l2-2c0.6-0.6,0.7-1.6,0-2l-4.1-3.1c-0.7-0.5-1.5-0.6-2,0l0,0l0,0l-1.2,1.2
	c-1.4-1.1-3-2.3-4.4-3.7C8.6,10.4,7.5,9,6.5,7.8l1.2-1.2c0.6-0.6,0.5-1.3,0-2L4.7,0.4C4.2-0.1,3.3-0.1,2.7,0.4 M4.7,7.6L6.3,6
	c0.4-0.4,0.3-0.9,0-1.3L4.4,2.1C4,1.6,3.4,1.7,3.1,2.1L1.8,3.4C1.3,3.9,1.4,5,1.7,5.5c1.2,2.3,3.9,5.8,6.1,8.1
	c2.6,2.8,8.7,6.6,8.7,6.6c0.5,0.2,1.8,0.3,2.1-0.1l1.3-1.3c0.3-0.4,0.4-1,0-1.3l-2.6-1.9c-0.4-0.3-0.9-0.4-1.3,0l-1.6,1.6
	C14,17,8,13,4.7,7.6z"/>
</svg>
