<?xml version="1.0" encoding="utf-8"?>
<!-- Generator: Adobe Illustrator 18.0.0, SVG Export Plug-In . SVG Version: 6.00 Build 0)  -->
<!DOCTYPE svg PUBLIC "-//W3C//DTD SVG 1.1//EN" "http://www.w3.org/Graphics/SVG/1.1/DTD/svg11.dtd">
<svg version="1.1" id="Camada_1" xmlns="http://www.w3.org/2000/svg" xmlns:xlink="http://www.w3.org/1999/xlink" x="0px" y="0px"
	 viewBox="0 0 41.3 33.4" enable-background="new 0 0 41.3 33.4" xml:space="preserve">
<path fill-rule="evenodd" clip-rule="evenodd" fill="#FFFFFF" d="M36.1,33.4h-31c-2.8,0-5.2-2.3-5.2-5.1V5.1C0,2.3,2.3,0,5.2,0h31
	c2.8,0,5.2,2.3,5.2,5.1v23.1C41.3,31.1,39,33.4,36.1,33.4z M6.4,2.6l14.2,12.3L34.8,2.6H6.4z M38.7,5.1c0-0.7-0.3-1.4-0.8-1.9
	L20.6,18L3.4,3.3C2.9,3.7,2.6,4.4,2.6,5.1v23.1c0,1.4,1.2,2.6,2.6,2.6h31c1.4,0,2.6-1.2,2.6-2.6V5.1z"/>
</svg>
