<?xml version="1.0" encoding="utf-8"?>
<!-- Generator: Adobe Illustrator 18.0.0, SVG Export Plug-In . SVG Version: 6.00 Build 0)  -->
<!DOCTYPE svg PUBLIC "-//W3C//DTD SVG 1.1//EN" "http://www.w3.org/Graphics/SVG/1.1/DTD/svg11.dtd">
<svg version="1.1" id="Camada_1" xmlns="http://www.w3.org/2000/svg" xmlns:xlink="http://www.w3.org/1999/xlink" x="0px" y="0px"
	 viewBox="0 0 35.1 48" enable-background="new 0 0 35.1 48" xml:space="preserve">
<path fill-rule="evenodd" clip-rule="evenodd" fill="#FFFFFF" d="M17.5,48C14.6,48,0,25.5,0,18C0,8.1,7.9,0,17.5,0
	c9.7,0,17.5,8.1,17.5,18C35.1,25.4,20.4,48,17.5,48z M17.5,3C9.5,3,2.9,9.7,2.9,18c0,6.3,12.2,25.5,14.6,25.5
	c2.4,0,14.6-19.3,14.6-25.5C32.2,9.7,25.6,3,17.5,3z M17.5,25.5c-4,0-7.3-3.4-7.3-7.5c0-4.1,3.3-7.5,7.3-7.5c4,0,7.3,3.4,7.3,7.5
	C24.8,22.1,21.6,25.5,17.5,25.5z M17.5,13.5c-2.4,0-4.4,2-4.4,4.5c0,2.5,2,4.5,4.4,4.5c2.4,0,4.4-2,4.4-4.5
	C21.9,15.5,20,13.5,17.5,13.5z"/>
</svg>
