<?xml version="1.0" encoding="utf-8"?>
<!-- Generator: Adobe Illustrator 18.0.0, SVG Export Plug-In . SVG Version: 6.00 Build 0)  -->
<!DOCTYPE svg PUBLIC "-//W3C//DTD SVG 1.1//EN" "http://www.w3.org/Graphics/SVG/1.1/DTD/svg11.dtd">
<svg version="1.1" id="Camada_1" xmlns="http://www.w3.org/2000/svg" xmlns:xlink="http://www.w3.org/1999/xlink" x="0px" y="0px"
	 viewBox="0 11.9 44 20.6" enable-background="new 0 11.9 44 20.6" xml:space="preserve">
<path fill="#FFFFFF" d="M42.2,11.9c1.1,2.7,1.8,6.8,1.8,9.9c0,2.1-0.6,4.4-1.7,6.7C44.1,30,12.5,36.3,2,27.6c-1.2-1.7-2-3.6-2-5.9
	c0-3.5,0.8-6.8,2.3-9.7C11.2,12.1,8.7,12.1,42.2,11.9z"/>
<linearGradient id="SVGID_1_" gradientUnits="userSpaceOnUse" x1="22.0517" y1="11.9036" x2="22.0517" y2="18.2656">
	<stop  offset="0.3564" style="stop-color:#F6F6F6"/>
	<stop  offset="1" style="stop-color:#FFFFFF"/>
</linearGradient>
<path fill="url(#SVGID_1_)" d="M0.3,17.9c0.3-1.6,0.4-3.1,1.8-6c8.9,0,6.7,0,40.2,0c1.1,2.7,1.2,3.4,1.4,6.4"/>
</svg>
